<svg id="checked" xmlns="http://www.w3.org/2000/svg" width="15" height="15" viewBox="0 0 15 15">
  <g id="Group_4508" data-name="Group 4508" transform="translate(0)">
    <g id="Group_4507" data-name="Group 4507">
      <path id="Path_216" data-name="Path 216" d="M12.8,2.2A7.5,7.5,0,0,0,2.2,12.8,7.5,7.5,0,1,0,12.8,2.2ZM7.5,14.121A6.621,6.621,0,1,1,14.121,7.5,6.629,6.629,0,0,1,7.5,14.121Z" transform="translate(0 0)" fill="#4bb543"/>
    </g>
  </g>
  <g id="Group_4510" data-name="Group 4510" transform="translate(3.762 4.947)">
    <g id="Group_4509" data-name="Group 4509">
      <path id="Path_217" data-name="Path 217" d="M136.646,169.6a.443.443,0,0,0-.626,0l-3.907,3.907-2.057-2.057a.442.442,0,1,0-.626.626l2.37,2.37a.442.442,0,0,0,.626,0l4.22-4.22A.442.442,0,0,0,136.646,169.6Z" transform="translate(-129.301 -169.467)" fill="#4bb543"/>
    </g>
  </g>
</svg>
