<svg id="close" xmlns="http://www.w3.org/2000/svg" width="15" height="15" viewBox="0 0 15 15">
  <g id="Group_4511" data-name="Group 4511">
    <path id="Path_218" data-name="Path 218" d="M12.8,2.2A7.5,7.5,0,1,0,2.2,12.8,7.5,7.5,0,1,0,12.8,2.2Zm-.6,10A6.647,6.647,0,0,1,2.8,2.8a6.647,6.647,0,1,1,9.4,9.4Z" fill="#cc0c1b"/>
    <path id="Path_219" data-name="Path 219" d="M135.669,129.051a.425.425,0,0,0-.6,0l-2.706,2.706-2.706-2.706a.427.427,0,0,0-.6.6l2.706,2.706-2.706,2.706a.428.428,0,0,0,.3.73.416.416,0,0,0,.3-.126l2.706-2.706,2.706,2.706a.429.429,0,0,0,.3.126.411.411,0,0,0,.3-.126.425.425,0,0,0,0-.6l-2.7-2.706,2.706-2.706A.425.425,0,0,0,135.669,129.051Z" transform="translate(-124.86 -124.86)" fill="#cc0c1b"/>
  </g>
</svg>
