<svg xmlns="http://www.w3.org/2000/svg" width="12" height="12" viewBox="0 0 12 12">
  <g id="instagram" transform="translate(0.001)">
    <path id="Path_278" data-name="Path 278" d="M8.751,0h-5.5A3.252,3.252,0,0,0,0,3.248v5.5A3.252,3.252,0,0,0,3.247,12h5.5A3.252,3.252,0,0,0,12,8.752v-5.5A3.252,3.252,0,0,0,8.751,0ZM11.3,8.752A2.548,2.548,0,0,1,8.751,11.3h-5.5A2.548,2.548,0,0,1,.7,8.752v-5.5A2.548,2.548,0,0,1,3.247.7h5.5A2.548,2.548,0,0,1,11.3,3.248Zm0,0" transform="translate(0)" fill="#fff"/>
    <path id="Path_279" data-name="Path 279" d="M119.267,116a3.263,3.263,0,1,0,3.263,3.263A3.267,3.267,0,0,0,119.267,116Zm0,5.827a2.564,2.564,0,1,1,2.564-2.564A2.567,2.567,0,0,1,119.267,121.831Zm0,0" transform="translate(-113.268 -113.267)" fill="#fff"/>
    <path id="Path_280" data-name="Path 280" d="M358.953,66.285a.976.976,0,1,0,.976.976A.977.977,0,0,0,358.953,66.285Zm0,1.244a.268.268,0,1,1,.268-.268A.268.268,0,0,1,358.953,67.529Zm0,0" transform="translate(-349.611 -64.721)" fill="#fff"/>
  </g>
</svg>
