<svg id="linkedin" xmlns="http://www.w3.org/2000/svg" width="12" height="12" viewBox="0 0 12 12">
  <path id="Path_275" data-name="Path 275" d="M16.269,15.816h0V11.4c0-2.161-.465-3.825-2.991-3.825a2.622,2.622,0,0,0-2.362,1.3h-.035v-1.1H8.489v8.04h2.494V11.835c0-1.048.2-2.062,1.5-2.062,1.279,0,1.3,1.2,1.3,2.129v3.914Z" transform="translate(-4.272 -3.816)" fill="#fff"/>
  <path id="Path_276" data-name="Path 276" d="M.4,7.977h2.5v8.04H.4Z" transform="translate(-0.197 -4.017)" fill="#fff"/>
  <path id="Path_277" data-name="Path 277" d="M1.446,0A1.453,1.453,0,1,0,2.892,1.446,1.447,1.447,0,0,0,1.446,0Z" fill="#fff"/>
</svg>
