<svg xmlns="http://www.w3.org/2000/svg" width="8.521" height="8.521" viewBox="0 0 8.521 8.521">
  <path id="phone" d="M7.734,5.84H6.787v.947h.947Zm1.894,0H8.681v.947h.947Zm1.42,3.077a5.378,5.378,0,0,1-1.69-.27.483.483,0,0,0-.483.114L7.833,9.8a7.136,7.136,0,0,1-3.12-3.115L5.755,5.641a.465.465,0,0,0,.118-.478,5.378,5.378,0,0,1-.27-1.69A.475.475,0,0,0,5.13,3H3.473A.475.475,0,0,0,3,3.473a8.047,8.047,0,0,0,8.047,8.047.475.475,0,0,0,.473-.473V9.391A.475.475,0,0,0,11.047,8.917ZM10.574,5.84v.947h.947V5.84Z" transform="translate(-3 -3)" fill="#fff"/>
</svg>
