<svg id="play" xmlns="http://www.w3.org/2000/svg" width="26" height="30" viewBox="0 0 26 30">
  <path id="Path_1" data-name="Path 1" d="M58.928,11.538,41.149.616A4.111,4.111,0,0,0,34.883,4.1V25.85a4.147,4.147,0,0,0,4.1,4.15H39a4.135,4.135,0,0,0,2.131-.639,1.171,1.171,0,1,0-1.223-2,1.718,1.718,0,0,1-2.681-1.514V4.1a1.763,1.763,0,0,1,2.687-1.5L57.7,13.53a1.754,1.754,0,0,1-.008,3L44.834,24.372a1.171,1.171,0,1,0,1.226,2l12.853-7.843a4.09,4.09,0,0,0,.015-6.986Z" transform="translate(-34.883 0)" fill="#cc0c1b"/>
</svg>
