<svg xmlns="http://www.w3.org/2000/svg" width="37" height="40" viewBox="0 0 37 40">
  <g id="s-3" transform="translate(-1773.736 -1360.003)">
    <g id="XMLID_121_" transform="translate(1773.736 1360.003)">
      <path id="XMLID_254_" d="M58.4,21.454A2.221,2.221,0,0,0,57.009,20a1.524,1.524,0,0,0,.159-1.394l-1.145-3.025.159-.318a9.932,9.932,0,0,0,.8-6.68q-.007-.034-.017-.067A10.324,10.324,0,0,0,53.25,3.121,10.6,10.6,0,0,0,46.892.983,10.286,10.286,0,0,0,41.841,2.3,4.131,4.131,0,1,0,37.06,8.113a10.32,10.32,0,0,0,3.2,11.121l-2.184,6.541a8.974,8.974,0,0,0-2.012,1.3.782.782,0,1,0,1.016,1.188A7.438,7.438,0,0,1,45.087,27.2,17.886,17.886,0,0,1,54.262,37.24l.827,2.248a.782.782,0,0,0,1.468-.539L55.73,36.7a19.523,19.523,0,0,0-1.548-3.248v-5.01h3.7V39.219a.782.782,0,0,0,1.564,0V27.909l.262-.373a4.078,4.078,0,0,0-.517-5.323ZM35.565,4.128a2.569,2.569,0,0,1,4.956-.946,10.4,10.4,0,0,0-2.855,3.468A2.57,2.57,0,0,1,35.565,4.128Zm2.55,7.184a8.781,8.781,0,0,1,8.777-8.766,8.908,8.908,0,0,1,8.251,5.48,9.159,9.159,0,0,0-5.764,3l-1.035,1.162a2.459,2.459,0,0,0-4.3-.08l-.93,1.61a2.456,2.456,0,0,0,.476,3.047,2.07,2.07,0,0,1-1.812,1.671,8.76,8.76,0,0,1-3.66-7.124ZM41.9,24.922a9,9,0,0,0-1.965.217l1.713-5.131A3.629,3.629,0,0,0,45.186,16.4a.781.781,0,0,0-.391-.677.893.893,0,0,1-.327-1.221l.93-1.61a.894.894,0,0,1,1.55.894.782.782,0,0,0,1.262.91l2.34-2.628a7.593,7.593,0,0,1,5.025-2.513,8.37,8.37,0,0,1-.79,5.01l-.313.624a.781.781,0,0,0-.032.626L55.685,19.1l-.622-.173a.782.782,0,0,0-.963.543l-.3,1.084h-.161a1.237,1.237,0,0,0-.809,2.174l.071.061a1.848,1.848,0,0,1-.357.265,1.829,1.829,0,0,1-1.4.17l-3.967-1.1a.781.781,0,1,0-.42,1.505l.626.174-.871,2.364q-.374-.2-.757-.38a9.06,9.06,0,0,0-3.858-.868Zm9.916,5.346a19.471,19.471,0,0,0-3.928-3.3L48.9,24.226l1.829.509a3.423,3.423,0,0,0,.918.126,3.363,3.363,0,0,0,.983-.148c-.005.1-.009.207-.009.311V31.2q-.386-.478-.8-.936Zm2.366-3.388V25.023a4.223,4.223,0,0,1,1.233-2.992l.4-.4a.653.653,0,0,1,.465-.194h0a.656.656,0,0,1,.464,1.12l-.656.655a.782.782,0,0,0,1.106,1.1l.656-.655a2.223,2.223,0,0,0,.265-.321,2.525,2.525,0,0,1,.32,3.3l-.171.243H54.182Z" transform="translate(-32.906 0)"/>
      <path id="XMLID_586_" d="M20.783,423.964a.784.784,0,0,0-.782.784v5.319a.782.782,0,1,0,1.564,0v-5.324A.78.78,0,0,0,20.783,423.964Z" transform="translate(-20.001 -390.85)"/>
      <path id="XMLID_587_" d="M417.588,269.806H412.9a.782.782,0,1,0,0,1.564h4.683a.782.782,0,0,0,0-1.564Z" transform="translate(-381.37 -248.729)"/>
      <path id="XMLID_588_" d="M395.178,205.212a.778.778,0,0,0,.392-.106l3.736-2.17a.782.782,0,1,0-.786-1.353l-3.736,2.17a.782.782,0,0,0,.394,1.459Z" transform="translate(-365.03 -185.739)"/>
      <path id="XMLID_589_" d="M399.306,312.661l-3.736-2.17a.782.782,0,1,0-.786,1.353l3.736,2.17a.782.782,0,1,0,.786-1.353Z" transform="translate(-365.03 -286.139)"/>
      <path id="XMLID_590_" d="M251.426,192.064h.425a.782.782,0,1,0,0-1.564h-.425a.782.782,0,0,0,0,1.564Z" transform="translate(-232.562 -175.618)"/>
      <path id="XMLID_591_" d="M30.442,379.97A.782.782,0,1,0,31,380.2.788.788,0,0,0,30.442,379.97Z" transform="translate(-28.905 -350.286)"/>
    </g>
  </g>
</svg>
