<svg xmlns="http://www.w3.org/2000/svg" width="25" height="28" viewBox="0 0 25 28">
  <g id="sick" transform="translate(-27.899)">
    <path id="Path_286" data-name="Path 286" d="M49.663,13.8v-.85a9.069,9.069,0,0,0-.441-2.8L52.509,7.51a1.037,1.037,0,0,0-.653-1.846H50.44l2.179-3.827A1.229,1.229,0,0,0,51.546,0H47.52A1.242,1.242,0,0,0,46.41.691h0L44.446,4.71a9.105,9.105,0,0,0-2.2-.722,9.2,9.2,0,0,0-7.7,2.03.416.416,0,0,0,.543.631,8.343,8.343,0,0,1,8.989-1.191l-.7,1.427a1.022,1.022,0,0,0,.922,1.469h1.336l-1.22,3.225a1,1,0,0,0,.355,1.176,1.008,1.008,0,0,0,1.233-.031l2.511-2.015a8.254,8.254,0,0,1,.308,2.238v.866a24.709,24.709,0,0,1-10.112-2.044,9.33,9.33,0,0,1-2.934-2.028.418.418,0,0,0-.741.262,3.519,3.519,0,0,1-1.015,2.258,5.777,5.777,0,0,1-1.844,1.36v-.674a8.2,8.2,0,0,1,1.7-5.026.417.417,0,0,0-.664-.5,9.02,9.02,0,0,0-1.874,5.531V13.8l-.168,0a3.269,3.269,0,1,0,0,6.538c.094,0,.189,0,.283-.013a9.169,9.169,0,0,0,16.73,3.516.417.417,0,0,0-.7-.453,8.33,8.33,0,0,1-15.31-4.507V14.525a6.5,6.5,0,0,0,2.466-1.709,4.873,4.873,0,0,0,1.107-1.945,12.143,12.143,0,0,0,2.531,1.616,24.533,24.533,0,0,0,10.541,2.159v4.232a8.216,8.216,0,0,1-.623,3.153.417.417,0,0,0,.772.316,9.016,9.016,0,0,0,.57-2.014H49.6a3.268,3.268,0,0,0,.063-6.536Zm-4.177-1.721a.181.181,0,0,1-.283-.2l1.432-3.787a.416.416,0,0,0-.391-.562h-1.94a.19.19,0,0,1-.172-.273l3.027-6.194h0A.4.4,0,0,1,47.52.832h4.026a.4.4,0,0,1,.347.594L49.361,5.874a.416.416,0,0,0,.363.621h2.132a.206.206,0,0,1,.13.367ZM31.181,19.5a2.437,2.437,0,1,1,0-4.875l.168,0v1.394a1.629,1.629,0,0,0-1.623.958.417.417,0,0,0,.765.332.823.823,0,0,1,.858-.46v2.021c0,.207.008.413.021.617C31.307,19.5,31.244,19.5,31.181,19.5Zm18.461,0q.021-.31.021-.624V16.856a.822.822,0,0,1,.857.46.417.417,0,0,0,.765-.332,1.629,1.629,0,0,0-1.622-.958v-1.4a2.436,2.436,0,0,1-.021,4.872Z" transform="translate(0)" fill="#fff"/>
    <path id="Path_287" data-name="Path 287" d="M204.43,379.034a3.034,3.034,0,0,1,4.286,0,.424.424,0,0,0,.6-.6,3.883,3.883,0,0,0-5.485,0,.424.424,0,0,0,.6.6Z" transform="translate(-166.068 -356.411)" fill="#fff"/>
    <path id="Path_288" data-name="Path 288" d="M165.62,293.427a.423.423,0,0,0,.53.28l2.24-.689a.424.424,0,0,0,.175-.7l-1.508-1.508a.424.424,0,0,0-.6.6l1.01,1.01-1.567.482A.424.424,0,0,0,165.62,293.427Z" transform="translate(-130.056 -274.604)" fill="#fff"/>
    <path id="Path_289" data-name="Path 289" d="M290.242,293.727a.424.424,0,0,0,.125-.829l-1.567-.482,1.01-1.01a.424.424,0,1,0-.6-.6l-1.508,1.508a.424.424,0,0,0,.175.7l2.24.689A.424.424,0,0,0,290.242,293.727Z" transform="translate(-245.26 -274.605)" fill="#fff"/>
    <path id="Path_290" data-name="Path 290" d="M38.612,29.83l-1.639.378a.424.424,0,0,0-.257.648l1.723,2.584a.424.424,0,1,0,.705-.47L37.761,30.9l1.642-.379a.424.424,0,0,0,.256-.65l-2.384-3.532a.424.424,0,0,0-.7.474Z" transform="translate(-8.116 -24.671)" fill="#fff"/>
    <path id="Path_291" data-name="Path 291" d="M114.7,11.861a.424.424,0,1,0,.779-.335l-.683-1.589,1.119-.05a.424.424,0,0,0,.369-.593l-.875-2a.424.424,0,0,0-.777.339l.628,1.437-1.116.05a.424.424,0,0,0-.37.591Z" transform="translate(-81.07 -6.64)" fill="#fff"/>
  </g>
</svg>
