<svg xmlns="http://www.w3.org/2000/svg" width="14.769" height="12" viewBox="0 0 14.769 12">
  <g id="twitter" transform="translate(0 -48)">
    <g id="Group_419" data-name="Group 419" transform="translate(0 48)">
      <path id="Path_272" data-name="Path 272" d="M14.769,49.421a6.313,6.313,0,0,1-1.745.478,3.011,3.011,0,0,0,1.332-1.674,6.051,6.051,0,0,1-1.92.733A3.028,3.028,0,0,0,7.2,51.029a3.118,3.118,0,0,0,.07.69,8.57,8.57,0,0,1-6.241-3.167,3.029,3.029,0,0,0,.93,4.047,2.99,2.99,0,0,1-1.368-.373v.033a3.042,3.042,0,0,0,2.426,2.975,3.022,3.022,0,0,1-.794.1,2.677,2.677,0,0,1-.573-.052,3.057,3.057,0,0,0,2.829,2.109A6.084,6.084,0,0,1,.725,58.683,5.671,5.671,0,0,1,0,58.641,8.524,8.524,0,0,0,4.645,60a8.558,8.558,0,0,0,8.618-8.616c0-.134,0-.263-.011-.391A6.04,6.04,0,0,0,14.769,49.421Z" transform="translate(0 -48)" fill="#fff"/>
    </g>
  </g>
</svg>
