<svg xmlns="http://www.w3.org/2000/svg" width="15.844" height="12" viewBox="0 0 15.844 12">
  <g id="youtube" transform="translate(0.001)">
    <path id="Path_281" data-name="Path 281" d="M195.415,108.526,191.9,106.6a.645.645,0,0,0-.955.566v3.813a.644.644,0,0,0,.951.568l3.514-1.89a.645.645,0,0,0,0-1.135Zm-3.537,1.976v-2.849l2.626,1.437Zm0,0" transform="translate(-185.048 -103.237)" fill="#fff"/>
    <path id="Path_282" data-name="Path 282" d="M15.726,2.832V2.825a3.623,3.623,0,0,0-.7-1.839,2.578,2.578,0,0,0-1.707-.8L13.241.176l-.028,0C11.118.021,7.955,0,7.924,0H7.918C7.886,0,4.723.021,2.61.173l-.028,0L2.508.185a2.513,2.513,0,0,0-1.7.825A3.8,3.8,0,0,0,.117,2.816l0,.016C.111,2.885,0,4.148,0,5.417V6.6C0,7.87.111,9.134.116,9.187v.008a3.588,3.588,0,0,0,.7,1.816,2.631,2.631,0,0,0,1.765.789c.064.007.12.014.158.02l.037.005c1.209.115,5,.172,5.162.174h.01c.032,0,3.195-.021,5.289-.173l.028,0,.089-.01a2.455,2.455,0,0,0,1.683-.805A3.8,3.8,0,0,0,15.724,9.2l0-.016c0-.053.117-1.316.117-2.585V5.417c0-1.268-.112-2.531-.117-2.585ZM14.914,6.6c0,1.174-.1,2.383-.112,2.494a2.948,2.948,0,0,1-.455,1.286,1.527,1.527,0,0,1-1.1.508l-.1.011c-2.026.146-5.07.169-5.21.17-.157,0-3.894-.059-5.066-.168-.06-.01-.125-.017-.193-.025a1.736,1.736,0,0,1-1.187-.5l-.009-.009A2.674,2.674,0,0,1,1.04,9.1C1.033,9.016.928,7.793.928,6.6V5.417c0-1.172.1-2.38.112-2.493A2.888,2.888,0,0,1,1.5,1.637a1.6,1.6,0,0,1,1.119-.53L2.69,1.1C4.745.951,7.811.929,7.921.928s3.175.023,5.212.17l.082.01a1.663,1.663,0,0,1,1.137.515l0,0A2.717,2.717,0,0,1,14.8,2.919c.007.079.113,1.3.113,2.5Zm0,0" transform="translate(0)" fill="#fff"/>
  </g>
</svg>
